<svg xmlns="http://www.w3.org/2000/svg" viewBox="0 0 1671.44 522.9"><defs><style>.cls-1{fill:#fff;}</style></defs><g id="Layer_2" data-name="Layer 2"><g id="Layer_1-2" data-name="Layer 1"><path class="cls-1" d="M60.2,334.33v15.83q0,71.91.06,143.81c0,17.86-10.4,28.51-28.17,28.76-10.3.14-20.61,0-31.87,0v-9.54C.21,431.38.3,349.55,0,267.72c0-7.29,2.35-11.34,8.32-15.28C25.49,241.09,42.14,229,60.25,216.26v60.57h11.5c58,.11,116.05-.71,174,.66,34.32.81,62,17,77.21,48.35,15,30.93,14.07,62.78-6,91.83-14.21,20.62-35.35,29.79-61.31,30.52,8.21,11.23,17.8,20.58,31,21,34.37,1.07,68.79.36,104,.36V456.49q0-137.86.15-275.72c0-8-2-13.12-9-17.92-48.83-33.73-97.3-68-146.18-102.27L0,224.24c0-21.14-.16-40.78.24-60.41,0-2.17,3.06-4.76,5.28-6.32Q106.1,87,206.78,16.73c7.48-5.22,14.63-11,22.59-15.38,3.17-1.73,9.26-1.89,12.07.06q99,68.72,197.47,138.25c2.24,1.58,4.39,5.13,4.4,7.76q.27,186.41.07,372.81a9.7,9.7,0,0,1-.69,2.19,21.09,21.09,0,0,1-3.14.43c-47.94,0-95.88-.35-143.81,0-30.53.25-56.69-10.29-78.92-30.45-33.46-30.34-66.4-61.25-99.6-91.87-1.06-1-2.64-1.36-4-2l1.36-1.82c43.83,0,87.66.17,131.49-.07,21.06-.11,34.27-12.45,34.17-31-.1-18-15.36-31.86-35.43-31.88q-87.95-.06-175.87,0C66.29,333.84,63.62,334.13,60.2,334.33Z"/><path class="cls-1" d="M195.1,151.24h32.48v34.15H195.1Z"/><path class="cls-1" d="M195.16,200.61h32.4v34h-32.4Z"/><path class="cls-1" d="M275,151.46v33.83H242.59V151.46Z"/><path class="cls-1" d="M242.47,234.37V200.68h32.41v33.69Z"/><path class="cls-1" d="M762.5,370.41c-18.68,0-35.76.29-52.81-.27-3-.1-6.91-3.12-8.7-5.88-14.83-23-29.46-46.13-43.7-69.49-3.28-5.39-6.89-7.52-13.11-7.12-8.12.51-16.31.13-25.35.13v82.33H566.2V130.9a10.56,10.56,0,0,1,2.72-.84c35.7,0,71.44-.81,107.1.49,26.78,1,50.49,10.79,66.92,33.51,22.9,31.65,21,98.64-37.15,115.38-.52.15-.92.72-1.48,1.18Zm-143-198.31v73.51c15.62,0,30.58.71,45.44-.17,21.57-1.29,35.79-14.31,36.86-32.24,1.19-20-9.65-35.36-29.9-38.3C654.89,172.43,637.43,172.94,619.52,172.1Z"/><path class="cls-1" d="M1348.09,182.75c56.47,2.19,95.41,47.06,93.14,100-2.72,63.26-52.74,96.1-103.66,92.61-56-3.83-95.31-49-91.22-103C1250.42,218.8,1295.68,178.93,1348.09,182.75ZM1343.82,332a39.59,39.59,0,0,0,29.81-11.31c20.93-19.91,22.1-60.35,2.36-81.58-18.75-20.15-49-19.11-66.41,2.29-15,18.52-16.61,50.14-3.22,70.32C1315.18,325,1327.35,332.6,1343.82,332Z"/><path class="cls-1" d="M962.59,291.65H833.34c-2.55,13.13,6.78,30.1,20.38,38,19.75,11.45,43.86,6.81,58.27-10.92a10.83,10.83,0,0,1,7.19-3.65c13.1-.36,26.21-.17,39.33-.17-1.37,18.93-15.62,36.87-34.09,47.46-54.19,31.08-134.95,4.94-142.13-71.25-4.8-50.9,21.07-91.13,67.12-104.79,53.21-15.78,104.21,17.34,110.73,72.12C961.42,269.2,961.76,280.07,962.59,291.65ZM912.18,260.3C911.91,237,894.46,221,871.1,221.74c-19.89.66-37.9,19.32-37,38.56Z"/><path class="cls-1" d="M1072.9,245.78c10.85-18.49,21.34-35.94,31.31-53.68,2.72-4.83,5.52-6.92,11.27-6.77,16.36.44,32.74.16,50.76.16L1101.3,278c21.72,30.41,43.56,61,66.11,92.6-19.46,0-38.18.18-56.87-.24-2.19-.05-4.84-3.06-6.35-5.32-11.4-17.14-22.58-34.43-34.64-52.93-11,17.8-21.63,34.33-31.52,51.27-3.18,5.45-6.55,7.55-12.88,7.36-15.85-.48-31.72-.16-48.75-.16l64.85-91.94-64.23-93c16,0,31.12.92,46-.3,11.09-.9,16.87,2.93,21.85,12.57C1053.28,214,1063.2,229.35,1072.9,245.78Z"/><path class="cls-1" d="M1515.27,315.36c13.69,0,27.38-.11,41.06.14a6.13,6.13,0,0,1,4.52,3.14c6.59,16.55,20.8,19.16,35.89,19.4a45.78,45.78,0,0,0,16.85-3.21c7.25-2.82,11.85-8.41,11.69-16.85-.15-7.89-5.13-12.54-11.73-14.62-10.67-3.37-21.67-5.69-32.57-8.3-15.64-3.73-31.81-6.35-44.78-16.8-23.37-18.83-23.13-54.14.18-75.31,27.06-24.58,80.28-27.09,109.82-5.43,14.14,10.37,20.09,24.58,21.26,42.92-13.64,0-26.91.16-40.16-.21-1.54,0-3.42-2.7-4.43-4.55-8.71-16-30.47-22.86-45.48-12.91-4.58,3-8.91,10-9,15.23-.05,4.65,5,11.68,9.49,13.57,10.19,4.28,21.44,6,32.25,8.82,9.1,2.35,18.34,4.29,27.28,7.13,44.15,14,40,65.42,17.59,86.77-31.66,30.21-99.57,27.35-128-5.84C1519,339.06,1515.51,329.48,1515.27,315.36Z"/><path class="cls-1" d="M1473.88,130.38h47.92c-11.43,27.3-22.67,54.42-34.29,81.38-.87,2-4.45,4-6.85,4.06-10,.45-20.11.19-31.12.19Z"/><path class="cls-1" d="M1255.21,153.81c-9.9,18.84-20.48,36.27-28.36,54.85-5.72,13.51-13.15,19.62-27.8,17-5.29-1-10.91-.16-17.49-.16,6-17.5,11.73-34.28,17.55-51,7.18-20.65,7.22-20.63,28.78-20.62Z"/><path class="cls-1" d="M926.49,522.42c-22.33,0-36-14-35.94-36.92.07-22.39,13.67-36.43,35.38-36.52s35.92,14.42,36,37.07C962,508.28,948.3,522.37,926.49,522.42Zm-21.36-36.94c-.14,14.31,8,23.89,20.54,24.09,12.66.2,21.37-9.11,21.64-23.13.27-14.25-8.64-24.61-21.19-24.61S905.26,471.24,905.13,485.48Z"/><path class="cls-1" d="M1156.9,450.68c10.73,0,20.46-.16,30.19,0,11.94.25,21.27,7.39,23.56,17.66s-2.48,18.37-14.29,24.45a16,16,0,0,0-1.87,1.48c5.91,8.63,11.86,17.28,18,26.16-10.43,2.53-18.25.14-22.93-10.09a36.25,36.25,0,0,0-6.47-9.87c-2.66-2.78-6.29-4.65-9.5-6.92l-2.23,2v24.86H1156.9Zm14.54,11.95v21.31c8.54-1.3,18.1,3.89,23.5-5.88,1.37-2.48.94-7.44-.72-9.85C1188.64,460.11,1180,462.41,1171.44,462.63Z"/><path class="cls-1" d="M864.26,520.51c-11.84,3-18.42-2-24-11.49-3.48-5.91-4.93-16.39-17.35-13.25v25.06H808.79V451.15c12,0,24-.83,36,.26,9.42.86,16.61,9.89,18,19.41,1.31,9.2-4,16.95-16.61,23.49Zm-41.33-36.26c8.68-1.71,18.14,3.41,23.6-6,1.48-2.56.87-8.15-1-10.52-5.91-7.28-14.36-5.28-22.56-5Z"/><path class="cls-1" d="M1507.73,470.65c-6.47,0-12.49,2.09-16.65-5.77-1.52-2.86-8.16-4.63-12.11-4.12-3.57.45-6.65,4.7-10,7.27,2.63,2.86,4.75,6.78,8,8.34,5.67,2.71,12.1,3.77,18.08,5.89,8.79,3.11,14.31,9.13,14.56,18.8.23,8.9-6.23,17.42-15.67,20.1-18.11,5.13-37.17-.92-40.66-20.23,6.32-.31,12.17-2.65,17,4.8,2,3.12,8,5.66,11.77,5.17,4.57-.59,10.95-3.71,12.52-7.43,2.7-6.41-4.37-8.26-9-10-6.21-2.34-12.92-3.43-19-6.07-8.18-3.57-12.68-9.93-12-19.46.69-9.11,5.87-14.41,14-17.17C1487.62,444.32,1507.08,453.29,1507.73,470.65Z"/><path class="cls-1" d="M1425.24,508.65v11.73h-48V451.12h47.38v10.95h-33.33v16.15h29.82V491h-29.93v17.65Z"/><path class="cls-1" d="M1091.1,490.93V508.5h33.38v11.92h-46.92V451h46.73V462h-33v16.25H1121v12.71Z"/><path class="cls-1" d="M738.46,496.63v23.71h-14V451.13c11.76,0,23.6-1.11,35.13.31,11.81,1.46,18.53,13,17.3,26.09-1,10.43-9.54,18.35-21,19C750.49,496.9,745,496.63,738.46,496.63Zm.32-11.44c8.87-.51,18.11,3.23,23.13-5.75,1.69-3,1-9.58-1.27-12.18-5.82-6.65-14.09-4.57-21.86-4.14Z"/><path class="cls-1" d="M1007.17,520.61H993.25V451.3c11.28,0,23.15-1.09,34.72.32,10.91,1.33,18.24,12.67,17.46,23.44-.91,12.48-9,20.58-21.77,21.48-5.14.37-10.32.06-16.49.06Zm-.65-57.68c0,6.33-.47,11.83.25,17.16.27,2,3.07,4.51,5.22,5.19,2.76.87,6.09.5,9.06,0,5.76-1,10.54-3.24,10.61-10.31s-3.83-10.86-10.19-11.9C1017.07,462.35,1012.46,462.93,1006.52,462.93Z"/><path class="cls-1" d="M1274.19,520.69h-13.11V463.61h-22.79V450.89h58.25v12.25h-22.35Z"/><path class="cls-1" d="M1327.44,450.89h13.09V520.6h-13.09Z"/></g></g></svg>